<?xml version="1.0" standalone="no"?>
<!DOCTYPE svg PUBLIC "-//W3C//DTD SVG 20010904//EN"
 "http://www.w3.org/TR/2001/REC-SVG-20010904/DTD/svg10.dtd">
<svg version="1.0" xmlns="http://www.w3.org/2000/svg"
 width="500.000000pt" height="500.000000pt" viewBox="0 0 500.000000 500.000000"
 preserveAspectRatio="xMidYMid meet">

<g transform="translate(0.000000,500.000000) scale(0.100000,-0.100000)"
fill="#000000" stroke="none">
<path d="M1855 3290 c11 -5 27 -9 35 -9 9 0 8 4 -5 9 -11 5 -27 9 -35 9 -9 0
-8 -4 5 -9z"/>
<path d="M1720 3266 c-156 -48 -291 -126 -420 -241 -47 -42 -114 -99 -150
-126 -71 -53 -287 -167 -417 -219 -45 -19 -80 -37 -77 -42 3 -4 10 -8 15 -8 6
0 7 5 3 11 -4 8 1 9 16 4 16 -5 20 -4 15 5 -5 9 -1 10 15 5 17 -5 21 -4 15 6
-6 9 -3 11 9 6 31 -12 302 109 451 201 44 28 136 98 205 157 69 59 154 124
190 145 66 38 188 90 212 90 10 0 9 3 -2 11 -11 8 -6 9 20 4 26 -5 31 -4 20 4
-21 15 -34 13 -120 -13z m50 -3 c-170 -61 -266 -117 -390 -228 -146 -130 -304
-229 -498 -314 -142 -62 -124 -49 44 33 183 89 287 156 419 272 123 107 211
165 307 203 98 39 101 39 118 39 13 0 13 0 0 -5z"/>
<path d="M2285 3286 c-5 -2 -22 -7 -37 -10 -25 -6 -41 -36 -20 -36 4 0 56 -43
116 -95 59 -52 115 -96 124 -97 9 -1 225 -2 479 -2 461 -1 462 -1 425 18 -60
31 -167 74 -327 131 -123 43 -173 56 -280 69 -124 16 -459 31 -480 22z"/>
<path d="M1870 3235 c-107 -24 -212 -65 -206 -81 4 -10 -4 -14 -31 -14 -63 0
-224 -101 -274 -172 -13 -17 -18 -29 -13 -25 9 5 40 9 169 22 28 3 142 7 255
10 281 6 505 15 568 21 l52 5 -22 41 c-36 64 -138 153 -205 178 -75 29 -204
35 -293 15z"/>
<path d="M2935 3020 c-146 -5 -146 -14 0 -25 143 -11 326 -35 510 -66 181 -31
240 -51 276 -96 10 -12 6 -11 -14 4 -16 12 -54 29 -84 38 -66 19 -98 11 -114
-31 l-10 -27 -22 20 c-33 31 -61 43 -112 48 -120 12 -155 -85 -55 -153 29 -19
46 -23 95 -21 67 3 99 14 89 31 -4 7 -3 8 5 4 7 -4 14 2 20 15 l8 23 6 -25 c8
-30 63 -68 109 -75 38 -7 98 17 98 39 0 8 3 7 9 -2 8 -12 11 -9 16 12 4 15 5
34 1 42 -7 19 10 20 21 1 4 -7 28 -35 52 -62 30 -34 42 -42 39 -28 -8 30 10
25 47 -13 36 -35 74 -41 293 -45 123 -2 135 -1 148 17 12 16 16 17 23 6 6 -9
11 -10 15 -2 4 6 12 9 17 6 14 -9 11 32 -6 73 -19 44 -54 84 -67 76 -5 -4 -19
3 -31 14 -12 11 -32 25 -45 31 -12 7 -20 16 -17 21 14 23 -195 78 -410 109
-331 48 -526 56 -910 41z m1215 -130 c14 -4 -11 -5 -56 -2 -44 2 -120 1 -168
-3 -76 -6 -88 -10 -96 -28 -8 -20 -11 -17 -14 16 -1 7 19 14 54 18 81 8 251 8
280 -1z m57 -16 c-3 -3 -12 -4 -19 -1 -8 3 -5 6 6 6 11 1 17 -2 13 -5z"/>
<path d="M2465 2852 c-28 -10 -71 -30 -96 -44 -46 -27 -139 -121 -139 -140 0
-17 -60 0 -78 21 -21 24 -379 151 -426 151 -60 0 -104 -76 -72 -125 9 -14 27
-32 40 -40 40 -26 390 -146 411 -141 11 3 30 3 42 0 19 -5 21 -14 25 -97 5
-118 41 -201 122 -283 255 -254 676 -118 726 236 11 74 9 89 -16 180 -60 214
-329 355 -539 282z m303 -56 c143 -73 220 -210 210 -371 -11 -164 -119 -297
-281 -347 -301 -91 -571 205 -458 502 41 108 128 191 245 232 78 28 214 21
284 -16z m-864 -42 c72 -26 132 -48 134 -49 7 -6 -33 -105 -42 -105 -13 0
-278 94 -295 104 -18 12 -13 74 7 85 30 18 61 12 196 -35z m181 -134 c-9 -28
-21 -47 -26 -44 -10 6 -6 28 18 84 22 50 28 19 8 -40z m93 14 c19 -6 22 -11
17 -33 -9 -37 -18 -43 -48 -32 -24 9 -25 13 -16 41 12 32 13 33 47 24z"/>
<path d="M2500 2785 c-105 -30 -199 -115 -236 -217 -9 -24 -17 -77 -17 -118
-1 -62 4 -86 27 -136 33 -73 100 -142 176 -181 49 -25 65 -28 155 -28 89 0
106 3 150 26 66 35 130 101 163 169 23 48 27 67 27 145 -1 79 -4 97 -30 148
-75 151 -258 235 -415 192z m235 -56 c169 -79 222 -306 109 -462 -38 -52 -107
-101 -164 -117 -64 -18 -160 -12 -215 14 -218 101 -235 422 -29 542 100 59
206 67 299 23z"/>
<path d="M907 2583 c-4 -58 -7 -182 -7 -275 l0 -168 65 0 65 0 2 190 3 191 70
-168 70 -168 40 0 39 0 70 173 c45 113 72 169 77 160 7 -10 9 -9 9 5 0 14 9
17 55 17 l55 0 0 75 0 76 -91 -3 -92 -3 -57 -153 c-31 -84 -59 -155 -62 -157
-2 -3 -26 50 -53 118 -26 67 -56 139 -67 160 l-18 37 -84 0 -83 0 -6 -107z"/>
<path d="M545 2610 c-44 -16 -75 -29 -69 -29 6 -1 31 6 54 14 23 8 46 12 51 9
5 -3 9 0 9 6 0 7 7 10 15 6 8 -3 15 -1 15 5 0 6 7 8 16 5 8 -3 12 -2 9 4 -8
13 -7 13 -100 -20z"/>
<path d="M1405 2480 c-3 -5 -3 -135 1 -290 l7 -280 103 0 c121 0 105 -16 174
173 l43 118 54 -133 c30 -73 59 -138 65 -145 7 -9 41 -13 109 -13 l99 0 0 108
c0 60 3 191 7 290 l6 182 -81 0 -82 0 -1 -102 c0 -57 0 -132 0 -168 l1 -65
-33 75 c-18 41 -46 108 -62 148 l-28 72 -51 0 -51 0 -56 -140 -56 -139 -7 67
c-3 37 -6 109 -6 160 l0 92 -74 0 c-41 0 -77 -4 -81 -10z m126 -162 c1 -73 3
-140 4 -148 1 -8 3 -34 4 -58 2 -82 28 -48 100 133 62 154 70 170 94 173 31 4
29 7 107 -185 34 -81 65 -152 71 -158 22 -22 29 26 29 198 l0 177 51 0 52 0
-6 -92 c-4 -51 -7 -166 -7 -255 l0 -163 -78 0 -78 0 -59 148 c-61 153 -72 175
-87 170 -5 -2 -31 -62 -58 -133 -26 -72 -52 -142 -58 -157 -11 -27 -14 -28
-92 -28 l-80 0 0 255 0 255 45 0 45 0 1 -132z"/>
<path d="M3110 2397 c0 -10 -4 -17 -10 -17 -6 0 -10 -33 -10 -79 l0 -80 43 -5
c103 -13 156 -16 372 -26 216 -10 269 -19 237 -39 -10 -6 -4 -16 25 -40 49
-41 131 -71 192 -71 87 0 207 48 259 103 l22 24 -32 -5 c-30 -5 -32 -3 -19 12
12 14 10 16 -20 17 -19 1 13 6 71 10 220 18 310 64 270 139 -9 16 -14 19 -25
10 -10 -9 -15 -6 -20 9 -6 20 -8 20 -36 6 -79 -41 -374 -61 -684 -45 -255 12
-295 19 -323 55 -19 24 -26 25 -166 31 -132 6 -146 6 -146 -9z m943 -214 c-13
-2 -35 -2 -50 0 -16 2 -5 4 22 4 28 0 40 -2 28 -4z"/>
<path d="M3027 2280 c-28 -115 -71 -170 -163 -205 -38 -15 -38 -15 56 -12 53
2 107 10 120 17 54 28 98 71 98 95 0 21 -6 24 -42 27 l-41 3 -5 75 -5 75 -18
-75z"/>
<path d="M1280 1696 l0 -106 29 0 c26 0 30 4 33 33 l3 32 18 -32 c17 -32 20
-33 77 -33 l60 0 0 40 c0 36 3 40 25 40 20 0 25 5 25 25 0 20 -5 25 -26 25
-16 0 -24 5 -22 13 5 13 148 24 148 10 0 -4 -14 -28 -30 -53 -16 -25 -30 -57
-30 -72 0 -28 1 -28 65 -28 63 0 65 1 65 25 0 22 -4 25 -35 25 l-35 0 36 54
c22 33 34 63 32 78 -3 23 -4 23 -138 23 l-135 0 -5 -99 -5 -100 -25 53 -24 53
22 38 c28 50 28 60 -3 60 -18 0 -31 -10 -44 -31 l-19 -32 -4 29 c-2 23 -9 30
-30 32 l-28 3 0 -105z"/>
<path d="M1940 1787 c-39 -19 -39 -68 -1 -100 17 -14 36 -27 43 -30 7 -2 10
-8 5 -12 -4 -5 -13 -3 -19 3 -19 19 -58 15 -58 -6 0 -46 89 -71 124 -36 33 32
7 93 -46 110 -10 3 -18 12 -18 21 0 14 2 14 18 0 25 -23 62 -22 62 1 0 42 -67
71 -110 49z"/>
<path d="M2085 1775 c-35 -34 -36 -121 -2 -161 30 -34 83 -36 109 -3 27 32 23
49 -12 49 -16 0 -30 -4 -30 -10 0 -5 -7 -10 -15 -10 -11 0 -15 12 -15 49 0 54
10 70 30 46 7 -8 23 -15 36 -15 33 0 32 33 -2 59 -35 28 -69 26 -99 -4z"/>
<path d="M2224 1787 c-3 -8 -4 -54 -2 -103 3 -89 3 -89 31 -92 26 -3 27 -1 27
37 0 30 4 41 15 41 11 0 15 -11 15 -40 0 -38 2 -40 30 -40 l31 0 -3 103 c-3
101 -3 102 -28 102 -22 0 -25 -5 -28 -37 -5 -54 -32 -52 -32 2 0 36 -2 40 -25
40 -14 0 -28 -6 -31 -13z"/>
<path d="M2437 1793 c-3 -5 -15 -44 -27 -88 -12 -44 -24 -88 -26 -97 -4 -14 1
-18 25 -18 17 0 31 5 31 10 0 6 11 10 24 10 14 0 28 -4 31 -10 3 -5 19 -10 35
-10 l29 0 -14 48 c-7 26 -20 73 -29 105 -15 53 -19 57 -46 57 -16 0 -31 -3
-33 -7z m42 -125 c1 -5 -3 -8 -9 -8 -5 0 -10 12 -9 28 0 24 1 25 9 7 5 -11 9
-23 9 -27z"/>
<path d="M2570 1695 l0 -105 54 0 c47 0 57 4 75 26 23 29 29 110 11 144 -12
22 -60 40 -106 40 l-34 0 0 -105z m88 -3 c-5 -69 -28 -67 -28 2 0 46 3 54 15
49 12 -4 15 -17 13 -51z"/>
<path d="M2730 1695 l0 -105 71 0 c67 0 70 1 67 23 -2 18 -10 23 -40 25 -44 4
-55 32 -13 32 14 0 25 4 25 9 0 23 -14 41 -31 41 -10 0 -19 7 -19 15 0 11 11
15 40 15 40 0 45 5 34 34 -5 12 -21 16 -70 16 l-64 0 0 -105z"/>
<path d="M2880 1696 l0 -106 30 0 c28 0 30 3 30 38 l1 37 20 -37 c16 -31 25
-38 50 -38 l30 0 -3 103 -3 102 -27 3 c-27 3 -28 2 -28 -44 l0 -48 -22 44
c-18 35 -29 46 -50 48 l-28 3 0 -105z"/>
<path d="M3075 1775 c-35 -34 -36 -121 -2 -161 49 -57 131 -21 125 55 -3 33
-6 36 -36 39 -35 4 -54 -20 -33 -41 15 -15 14 -27 -4 -27 -11 0 -15 12 -15 49
0 54 10 70 30 46 7 -8 23 -15 36 -15 33 0 32 33 -2 59 -35 28 -69 26 -99 -4z"/>
<path d="M3217 1794 c-4 -4 -7 -40 -7 -80 0 -62 4 -77 23 -100 30 -35 83 -36
110 -3 14 18 17 37 15 103 -3 79 -4 81 -28 81 -24 0 -25 -2 -28 -78 -4 -103
-25 -101 -32 4 -4 65 -7 74 -25 77 -12 2 -24 0 -28 -4z"/>
<path d="M3370 1776 c0 -18 6 -25 23 -28 20 -3 22 -9 25 -80 l3 -78 29 0 30 0
0 80 c0 73 2 80 20 80 15 0 20 7 20 25 0 24 -2 25 -75 25 -73 0 -75 -1 -75
-24z"/>
<path d="M3587 1793 c-3 -5 -15 -44 -27 -88 -12 -44 -24 -88 -26 -97 -4 -14 1
-18 25 -18 17 0 31 5 31 10 0 6 11 10 24 10 14 0 28 -4 31 -10 3 -5 19 -10 35
-10 l29 0 -14 48 c-7 26 -20 73 -29 105 -15 53 -19 57 -46 57 -16 0 -31 -3
-33 -7z m42 -125 c1 -5 -3 -8 -9 -8 -5 0 -10 12 -9 28 0 24 1 25 9 7 5 -11 9
-23 9 -27z"/>
<path d="M3746 1779 c-23 -18 -26 -27 -26 -88 0 -54 4 -71 19 -85 40 -36 121
-12 121 36 0 12 -7 18 -24 18 -14 0 -28 -4 -31 -10 -15 -24 -25 -6 -25 45 0
56 8 67 30 40 12 -15 42 -20 52 -9 13 12 -6 46 -33 59 -37 20 -51 19 -83 -6z"/>
<path d="M3880 1696 l0 -106 30 0 c28 0 30 2 30 41 0 52 24 48 28 -4 3 -34 6
-37 33 -37 l29 0 0 80 c0 79 0 80 25 80 25 0 25 -1 25 -80 l0 -80 30 0 30 0 0
80 c0 79 0 80 26 80 21 0 25 4 22 23 -3 20 -9 22 -71 25 -42 2 -74 -2 -83 -9
-10 -8 -14 -8 -14 0 0 6 -11 11 -25 11 -22 0 -25 -4 -25 -40 0 -54 -27 -56
-32 -2 -3 32 -7 37 -30 40 l-28 3 0 -105z"/>
<path d="M4200 1695 l0 -105 71 0 c67 0 70 1 67 23 -2 18 -10 23 -40 25 -44 4
-55 32 -13 32 14 0 25 4 25 9 0 23 -14 41 -31 41 -10 0 -19 7 -19 15 0 11 11
15 40 15 40 0 45 5 34 34 -5 12 -21 16 -70 16 l-64 0 0 -105z"/>
<path d="M4350 1696 l0 -106 30 0 c28 0 30 3 30 38 l1 37 20 -37 c16 -31 25
-38 50 -38 l30 0 -3 103 -3 102 -27 3 c-27 3 -28 2 -28 -44 l0 -48 -22 44
c-18 35 -29 46 -50 48 l-28 3 0 -105z"/>
<path d="M1730 1675 c0 -23 3 -25 50 -25 47 0 50 2 50 25 0 23 -3 25 -50 25
-47 0 -50 -2 -50 -25z"/>
</g>
</svg>
